<svg width="22" height="25" viewBox="0 0 22 25" fill="none" xmlns="http://www.w3.org/2000/svg">
<path d="M8.72753 10.0699C8.0434 10.0699 7.5033 10.6699 7.5033 11.4022C7.5033 12.1345 8.05555 12.7344 8.72753 12.7344C9.41166 12.7344 9.95176 12.1345 9.95176 11.4022C9.96347 10.6703 9.41166 10.0699 8.72753 10.0699ZM13.1082 10.0699C12.4241 10.0699 11.884 10.6699 11.884 11.4022C11.884 12.1345 12.4362 12.7344 13.1082 12.7344C13.7923 12.7344 14.3324 12.1345 14.3324 11.4022C14.3324 10.6699 13.7923 10.0699 13.1082 10.0699Z" fill="#FCFCFC"/>
<path d="M18.9414 0H2.85845C1.50189 0 0.397827 1.10408 0.397827 2.47236V18.6995C0.397827 20.0678 1.50189 21.1719 2.85845 21.1719H16.469L15.8331 18.9516L17.3692 20.3797L18.8216 21.7241L21.402 24.0048V2.47236C21.402 1.10408 20.2975 0 18.9414 0ZM14.3086 15.6754C14.3086 15.6754 13.8766 15.1591 13.5165 14.7032C15.0886 14.2589 15.689 13.275 15.689 13.275C15.1971 13.5991 14.729 13.8273 14.3086 13.983C13.7087 14.2351 13.1326 14.4029 12.5682 14.4993C11.4159 14.7153 10.3596 14.6554 9.45941 14.4871C8.77528 14.3552 8.18702 14.163 7.69507 13.9709C7.41917 13.8628 7.11896 13.731 6.81875 13.5626C6.78275 13.5388 6.74674 13.5266 6.71073 13.5028C6.68688 13.4906 6.67473 13.4789 6.66257 13.4668C6.44653 13.3466 6.32636 13.2629 6.32636 13.2629C6.32636 13.2629 6.90247 14.2229 8.42691 14.6793C8.06684 15.1352 7.62261 15.6754 7.62261 15.6754C4.97025 15.5912 3.96206 13.8511 3.96206 13.8511C3.96206 9.98619 5.69039 6.85355 5.69039 6.85355C7.41872 5.55729 9.06288 5.59329 9.06288 5.59329L9.18305 5.73732C7.02264 6.3616 6.0266 7.30949 6.0266 7.30949C6.0266 7.30949 6.2908 7.16546 6.73459 6.96157C8.01868 6.39761 9.03903 6.24143 9.45896 6.20542C9.53097 6.19327 9.59083 6.18156 9.66285 6.18156C10.3951 6.08569 11.2233 6.06139 12.0875 6.15771C13.2275 6.28959 14.4518 6.6258 15.7003 7.30994C15.7003 7.30994 14.752 6.40976 12.7117 5.78548L12.8796 5.59329C12.8796 5.59329 14.5238 5.55729 16.2521 6.85355C16.2521 6.85355 17.9804 9.98619 17.9804 13.8511C17.9813 13.8507 16.961 15.5912 14.3086 15.6754Z" fill="#FBFBFB"/>
</svg>
