<svg width="25" height="25" viewBox="0 0 25 25" fill="none" xmlns="http://www.w3.org/2000/svg">
<path fill-rule="evenodd" clip-rule="evenodd" d="M12.694 0C5.89498 0 0.388062 5.50692 0.388062 12.306C0.388062 17.7514 3.91064 22.3507 8.80226 23.9812C9.41756 24.0889 9.6483 23.7197 9.6483 23.3967C9.6483 23.1044 9.63292 22.1354 9.63292 21.1047C6.54104 21.6739 5.74116 20.351 5.49504 19.6588C5.35659 19.305 4.75668 18.2128 4.23368 17.9206C3.80297 17.6898 3.18767 17.1207 4.21829 17.1053C5.18739 17.0899 5.8796 17.9975 6.11033 18.3667C7.21787 20.2279 8.98685 19.7049 9.69445 19.3819C9.80212 18.582 10.1252 18.0436 10.479 17.736C7.74087 17.4283 4.87974 16.3669 4.87974 11.6599C4.87974 10.3216 5.35659 9.21409 6.1411 8.35267C6.01804 8.04502 5.58733 6.78366 6.26416 5.09159C6.26416 5.09159 7.29478 4.76856 9.6483 6.35295C10.6328 6.07607 11.6788 5.93763 12.7248 5.93763C13.7708 5.93763 14.8168 6.07607 15.8013 6.35295C18.1548 4.75318 19.1854 5.09159 19.1854 5.09159C19.8622 6.78366 19.4315 8.04502 19.3085 8.35267C20.093 9.21409 20.5698 10.3062 20.5698 11.6599C20.5698 16.3823 17.6933 17.4283 14.9552 17.736C15.4013 18.1205 15.7859 18.8589 15.7859 20.0126C15.7859 21.6585 15.7705 22.9814 15.7705 23.3967C15.7705 23.7197 16.0013 24.1043 16.6166 23.9812C21.4774 22.3507 25 17.736 25 12.306C25 5.50692 19.4931 0 12.694 0Z" fill="#FBFBFB"/>
</svg>
