<svg width="25" height="25" viewBox="0 0 25 25" fill="none" xmlns="http://www.w3.org/2000/svg">
<path d="M12.0934 0.00311427C18.9526 -0.151072 24.5734 5.43992 24.3919 12.3471C24.2263 18.6437 19.0493 24.0729 12.2249 24.0041C5.72259 23.9388 0.374496 18.6805 0.341797 11.9991C0.381454 5.32741 5.69893 0.147577 12.0934 0.00311427ZM20.8443 11.6671C21.4816 11.1955 21.8684 10.585 21.7912 9.76062C21.7161 8.95287 21.3063 8.3521 20.5646 8.02498C19.7625 7.67146 18.9951 7.77147 18.307 8.33266C18.2284 8.39655 18.1804 8.39933 18.0997 8.34655C16.8237 7.50686 15.4183 7.03666 13.9016 6.88316C13.7319 6.8658 13.5621 6.84774 13.3673 6.8276C13.6964 5.80386 14.0178 4.80651 14.342 3.79944C14.4199 3.81194 14.4825 3.81888 14.5438 3.83208C15.3181 3.99807 16.0911 4.16962 16.8668 4.32728C17.0268 4.35992 17.1055 4.41549 17.1507 4.58356C17.365 5.37742 18.1567 5.88373 18.9568 5.75524C20.0568 5.57814 20.6537 4.39535 20.1208 3.448C19.695 2.69096 18.3696 2.23812 17.5159 3.22922C17.4318 3.32646 17.3608 3.34938 17.237 3.32229C16.2316 3.10212 15.2249 2.89099 14.2182 2.67637C13.8 2.58678 13.6045 2.70138 13.4758 3.10976C13.1127 4.25991 12.7481 5.41006 12.3863 6.56021C12.355 6.65952 12.3293 6.73245 12.1943 6.73176C11.5153 6.72759 10.846 6.82343 10.1822 6.96304C8.99183 7.21446 7.88423 7.66313 6.8782 8.34863C6.78636 8.41114 6.73001 8.38544 6.64582 8.34724C6.30144 8.18819 5.9647 7.99025 5.60223 7.89441C4.34713 7.56242 2.85687 8.5806 3.11359 10.2537C3.21447 10.9115 3.60617 11.3872 4.14606 11.7484C4.23442 11.8074 4.25459 11.8609 4.23859 11.9581C4.08692 12.8631 4.18154 13.741 4.5475 14.5855C5.0679 15.7871 5.96261 16.6546 7.05074 17.3394C8.29192 18.1214 9.66878 18.5173 11.1124 18.6986C12.3752 18.8569 13.631 18.7972 14.8715 18.5173C16.6567 18.1152 18.2465 17.3505 19.4703 15.9496C20.4408 14.8384 20.8708 13.5465 20.6711 12.0727C20.6446 11.8755 20.692 11.7803 20.8443 11.6671Z" fill="#FBFBFB"/>
<path d="M16.599 11.7282C16.6018 12.3936 16.0035 12.9888 15.3307 12.9895C14.6308 12.9902 14.0582 12.4026 14.0575 11.6817C14.0568 11.0219 14.6468 10.4447 15.3237 10.4426C16.0209 10.4399 16.5955 11.0191 16.599 11.7282Z" fill="#FBFBFB"/>
<path d="M15.6054 14.9001C15.7397 15.0328 15.7772 15.2335 15.6311 15.4023C15.46 15.5988 15.2568 15.7822 15.0342 15.9155C14.4254 16.2809 13.7527 16.4663 13.0472 16.5309C12.8454 16.5496 12.6444 16.5608 12.5205 16.5698C11.3858 16.5573 10.4048 16.3017 9.53234 15.6905C9.43007 15.619 9.33405 15.5287 9.26239 15.428C9.13577 15.2488 9.15177 15.0293 9.2784 14.9029C9.47111 14.7091 9.72227 14.6689 9.92264 14.7848C10.1919 14.9418 10.4549 15.1175 10.7408 15.2363C12.1365 15.8162 13.4834 15.694 14.7726 14.9119C14.8463 14.8675 14.9159 14.814 14.9904 14.7703C15.1782 14.6633 15.4189 14.7154 15.6054 14.9001Z" fill="#FBFBFB"/>
<path d="M10.8391 11.7248C10.8419 12.3679 10.2359 12.9874 9.60347 12.9888C8.88548 12.9902 8.28993 12.4144 8.28784 11.7178C8.28645 11.0295 8.87017 10.442 9.55547 10.442C10.2498 10.442 10.8363 11.0274 10.8391 11.7248Z" fill="#FBFBFB"/>
</svg>
