<svg width="30" height="25" viewBox="0 0 30 25" fill="none" xmlns="http://www.w3.org/2000/svg">
<path d="M29.4058 2.8418C28.3238 3.32409 27.1613 3.64946 25.9403 3.79599C27.1855 3.04603 28.1423 1.85877 28.5926 0.443058C27.4267 1.13764 26.1356 1.64185 24.7618 1.91415C23.6614 0.736123 22.0946 0 20.3589 0C17.0267 0 14.3261 2.71373 14.3261 6.05974C14.3261 6.53511 14.3801 6.99778 14.4824 7.44084C9.46845 7.18816 5.02311 4.77557 2.04692 1.1088C1.52772 2.00415 1.23022 3.04487 1.23022 4.15482C1.23022 6.25704 2.29503 8.11235 3.91465 9.19923C2.92565 9.16808 1.99523 8.89463 1.18198 8.44118C1.18198 8.46657 1.18198 8.49195 1.18198 8.51733C1.18198 11.4537 3.26106 13.9033 6.0213 14.4594C5.51474 14.5978 4.98176 14.6717 4.43155 14.6717C4.0433 14.6717 3.66539 14.6336 3.29667 14.5632C4.06398 16.9712 6.29239 18.7227 8.93202 18.7723C6.86787 20.398 4.26614 21.366 1.43928 21.366C0.952243 21.366 0.472101 21.3372 0 21.2818C2.6695 23.001 5.84096 24.0048 9.2479 24.0048C20.3452 24.0048 26.4124 14.7709 26.4124 6.76356C26.4124 6.50049 26.4067 6.23974 26.3952 5.98013C27.5737 5.12401 28.5972 4.05675 29.4058 2.8418Z" fill="#FBFBFB"/>
</svg>
