<svg version="1.1" id="Layer_1" xmlns="http://www.w3.org/2000/svg" xmlns:xlink="http://www.w3.org/1999/xlink" x="0px" y="0px" viewBox="0 0 512 512" enable-background="new 0 0 512 512" xml:space="preserve">
<linearGradient id="SVGID_1_" gradientUnits="userSpaceOnUse" x1="256.0603" y1="447.7135" x2="256.0603" y2="177.7003" class="gradient-element">
	<stop offset="0" class="primary-color-gradient" style="stop-color: #05AD5F"></stop>
	<stop offset="1" class="secondary-color-gradient" style="stop-color: #DA5824"></stop>
</linearGradient>
<path fill="url(#SVGID_1_)" d="M150.9,152.4l98.2,35.4l81-32.4l35.8-15.4c0,0-2.4,42.7-48.2,79.4c-37.9,30.4-60.6,38.2-60.6,38.2
	s-4.9-1.2-33.7-14.2C186.4,226.6,150.9,152.4,150.9,152.4z M369.4,397c-0.5-22.3-9.6-26-9.6-26l-42-19l-60.9-25.6
	c-1.9-0.8-4.1-0.8-6.1,0l-101.5,40.1c-10.5,26.5-5.7,78.3-5.7,78.3l225.9,2.4C369.4,447.3,369.9,419.3,369.4,397z"></path>
<path d="M115.5,61.2c0-4.4,3.6-8,8-8h266.4c4.4,0,8,3.6,8,8s-3.6,8-8,8h-12v33.2c0,37.2-9.5,67.4-29.8,95
	c-16.6,22.5-38.6,40.6-62,59.4c9.6,7.6,18.7,15,27.5,22.8c3.3,2.9,3.6,8,0.7,11.3c-1.6,1.8-3.8,2.7-6,2.7c-1.9,0-3.8-0.7-5.3-2
	c-10.2-9-21.1-17.6-32.6-26.8l-2.1-1.7c-1.9-1.5-3-3.8-3-6.2s1.1-4.7,3-6.2l2.1-1.7c51.2-40.7,91.6-72.8,91.6-146.4V69.2H123.5
	C119.1,69.2,115.5,65.6,115.5,61.2z M389.9,444.2H151.5v-33.2c0-14.3,1.5-27,4.4-38.5l97.9-38.7c0,0,0.1,0,0.2,0l60.7,25.6
	c4.1,1.7,8.8-0.2,10.5-4.3c1.7-4.1-0.2-8.8-4.3-10.5L260,319.1c-0.1,0-0.1-0.1-0.2-0.1c-3.9-1.5-8.1-1.5-11.9,0l-85.4,33.8
	c15.4-36.2,45.5-60.1,80.7-88.1l2.1-1.7c1.9-1.5,3-3.8,3-6.2c0-2.4-1.1-4.7-3-6.2l-2.2-1.7c-35.2-28-65.3-51.9-80.7-88.1l88.5,34.6
	c0.9,0.4,1.9,0.5,2.9,0.5c1.1,0,2.1-0.2,3.1-0.6l83.1-35.3c4.1-1.7,6-6.4,4.2-10.5s-6.4-6-10.5-4.2l-80.1,34.1l-97.8-38.3
	c-2.3-9.3-3.7-19.4-4.2-30.5h197.6c4.4,0,8-3.6,8-8s-3.6-8-8-8H143.5c-4.4,0-8,3.6-8,8c0,37.2,9.5,67.4,29.8,95
	c16.6,22.5,38.6,40.6,62,59.4c-23.5,18.7-45.5,36.9-62,59.4c-20.3,27.6-29.8,57.7-29.8,95v33.2h-12c-4.4,0-8,3.6-8,8s3.6,8,8,8
	h266.4c4.4,0,8-3.6,8-8S394.4,444.2,389.9,444.2z M369.9,427.3c4.4,0,8-3.6,8-8v-8.2c0-36.7-9.2-66.5-28.9-93.8
	c-2.6-3.6-7.6-4.4-11.2-1.8c-3.6,2.6-4.4,7.6-1.8,11.2c17.6,24.4,25.9,51.2,25.9,84.4v8.2C361.9,423.7,365.5,427.3,369.9,427.3z"></path>

<path d="M422.4,318.2c0,4.4-3.6,8-8,8h-86.8c-4.4,0-8-3.6-8-8s3.6-8,8-8h86.8C418.8,310.2,422.4,313.8,422.4,318.2z M345,290.1
	c0-4.4-3.6-8-8-8h-57.4c-4.4,0-8,3.6-8,8s3.6,8,8,8H337C341.4,298.1,345,294.5,345,290.1z M466.4,114.9c0-4.4-3.6-8-8-8
	c-5.7,0-10.4-4.7-10.4-10.4s4.7-10.4,10.4-10.4c4.4,0,8-3.6,8-8s-3.6-8-8-8c-14.6,0-26.4,11.8-26.4,26.4s11.8,26.4,26.4,26.4
	C462.8,122.9,466.4,119.3,466.4,114.9z M155.4,246.7h-3.9v-3.9c0-4.4-3.6-8-8-8s-8,3.6-8,8v3.9h-3.9c-4.4,0-8,3.6-8,8s3.6,8,8,8h3.9
	v3.9c0,4.4,3.6,8,8,8s8-3.6,8-8v-3.9h3.9c4.4,0,8-3.6,8-8S159.9,246.7,155.4,246.7z M456.9,263.1c-3.1-3.1-8.2-3.1-11.3,0
	c-3.1,3.1-3.1,8.2,0,11.3c18.9,18.9,29.4,44.2,29.4,71.2v14.2c0,4.4,3.6,8,8,8s8-3.6,8-8v-14.2C490.9,314.4,478.8,285.1,456.9,263.1
	z"></path>
</svg>