<svg version="1.1" id="Layer_1" xmlns="http://www.w3.org/2000/svg" xmlns:xlink="http://www.w3.org/1999/xlink" x="0px" y="0px" viewBox="0 0 512 512" enable-background="new 0 0 512 512" xml:space="preserve">
<linearGradient id="SVGID_1_" gradientUnits="userSpaceOnUse" x1="323.8019" y1="440.4577" x2="325.914" y2="90.9215" class="gradient-element">
	<stop offset="0" class="primary-color-gradient" style="stop-color: #05AD5F"></stop>
	<stop offset="1" class="secondary-color-gradient" style="stop-color: #DA5824"></stop>
</linearGradient>
<path fill="url(#SVGID_1_)" d="M267.3,445.8l127.2-178c1.7-2.3,1.7-5.4,0-7.8L267.3,82c-3.8-5.3-12.1-2.6-12.1,3.9v356
	C255.2,448.4,263.5,451.1,267.3,445.8z"></path>
<g>
	<path fill="#DA5824" class="secondary-color" d="M431.6,493.7l60.9-60.9v60.9H431.6z M13.5,453.6v35.2H34v-35.2H13.5z"></path>
	<path fill="#DA5824" class="secondary-color" d="M67.1,453.6v35.2H45.8v-35.2H67.1z M421.1,36.8h77.3V14.3h-77.3V36.8z"></path>
</g>
<path d="M151.7,386.7c0,4.4-3.6,8-8,8h-3.9v3.9c0,4.4-3.6,8-8,8s-8-3.6-8-8v-3.9h-3.9c-4.4,0-8-3.6-8-8s3.6-8,8-8h3.9v-3.9
	c0-4.4,3.6-8,8-8s8,3.6,8,8v3.9h3.9C148.1,378.7,151.7,382.3,151.7,386.7z M440.4,377.9h-43c-4.4,0-8,3.6-8,8s3.6,8,8,8h43
	c4.4,0,8-3.6,8-8S444.9,377.9,440.4,377.9z M418.9,407.9h-73.8c-4.4,0-8,3.6-8,8s3.6,8,8,8h73.8c4.4,0,8-3.6,8-8
	S423.4,407.9,418.9,407.9z M428.9,322.7c5.9,0,10.8-4.8,10.8-10.8s-4.8-10.8-10.8-10.8s-10.8,4.8-10.8,10.8S422.9,322.7,428.9,322.7
	z M345.2,476.2c-5.9,0-10.8,4.8-10.8,10.8s4.8,10.8,10.8,10.8c5.9,0,10.8-4.8,10.8-10.8S351.1,476.2,345.2,476.2z M471.7,131.3h-3.9
	v-3.9c0-4.4-3.6-8-8-8s-8,3.6-8,8v3.9h-3.9c-4.4,0-8,3.6-8,8s3.6,8,8,8h3.9v3.9c0,4.4,3.6,8,8,8s8-3.6,8-8v-3.9h3.9c4.4,0,8-3.6,8-8
	S476.1,131.3,471.7,131.3z M34.1,379.1c-4.2,4.2-4.2,11,0,15.2c4.2,4.2,11,4.2,15.2,0c4.2-4.2,4.2-11,0-15.2
	C45.1,374.9,38.3,374.9,34.1,379.1z M319.5,25.5c-5.9,0-10.8,4.8-10.8,10.8S313.5,47,319.5,47s10.8-4.8,10.8-10.8
	S325.4,25.5,319.5,25.5z M69.6,232.1H53.8v-15.8c0-4.4-3.6-8-8-8s-8,3.6-8,8v15.8H22c-4.4,0-8,3.6-8,8s3.6,8,8,8h15.8v15.8
	c0,4.4,3.6,8,8,8s8-3.6,8-8v-15.8h15.8c4.4,0,8-3.6,8-8S74,232.1,69.6,232.1z M47.1,42c-5,5-7.7,11.6-7.7,18.7s2.7,13.7,7.7,18.7
	c1.6,1.6,3.6,2.3,5.7,2.3c2,0,4.1-0.8,5.7-2.3c3.1-3.1,3.1-8.2,0-11.3c-2-2-3-4.6-3-7.3s1.1-5.4,3-7.3c4.1-4.1,10.6-4.1,14.7,0
	c3.1,3.1,8.2,3.1,11.3,0c3.1-3.1,3.1-8.2,0-11.3C74.1,31.7,57.4,31.7,47.1,42z"></path>
<path d="M255.2,470.7L255.2,470.7c-2.6,0-5-1.2-6.5-3.3l-142-198.8c-2.6-3.6-1.7-8.6,1.9-11.2c3.6-2.6,8.6-1.7,11.2,1.9L255.2,449
	l132.2-185.1L255.2,78.9L142.1,237.2c-2.6,3.6-7.6,4.4-11.2,1.9c-3.6-2.6-4.4-7.6-1.9-11.2L248.6,60.4c1.5-2.1,3.9-3.4,6.5-3.4
	c2.6,0,5,1.2,6.5,3.3l142,198.8c2,2.8,2,6.5,0,9.3l-142,198.8C260.2,469.5,257.7,470.7,255.2,470.7z"></path>
</svg>