<svg version="1.1" id="Layer_1" xmlns="http://www.w3.org/2000/svg" xmlns:xlink="http://www.w3.org/1999/xlink" x="0px" y="0px" viewBox="0 0 512 512" enable-background="new 0 0 512 512" xml:space="preserve">
<linearGradient id="SVGID_1_" gradientUnits="userSpaceOnUse" x1="339.9345" y1="458.0468" x2="339.9345" y2="86.9121" class="gradient-element">
	<stop offset="0" class="primary-color-gradient" style="stop-color: #05AD5F"></stop>
	<stop offset="1" class="secondary-color-gradient" style="stop-color: #DA5824"></stop>
</linearGradient>
<path fill="url(#SVGID_1_)" d="M290.8,127.5V90.3c0-7.1,5.8-12.9,12.9-12.9h16.5v38.4c34.1,15.5,55.1,45.3,55.1,78.8v7h-41.6v-7
	c0-16-10.1-29.9-25.9-38.6C297.4,150.3,290.8,139.4,290.8,127.5z M358.4,268.4c-10.1-8-22.6-14.9-39.4-21.5
	c-13.5-5.4-28.3,4.6-28.3,19.1v0c0,9.1,5.9,17,14.6,19.7c20.8,6.6,42.1,19.6,42.1,47.8c0,24.3-20.6,38.7-35,45.9
	c-8.5,4.2-13.9,12.8-13.9,22.2v31.6c0,9,7.3,16.4,16.4,16.4h5.2v-32.4c50.7-15,68.9-54,68.9-83.7C389.1,306,379,284.7,358.4,268.4z"></path>
<path d="M397.1,333.5c0,30.8-18.2,72.1-68.9,89.6v26.6c0,4.4-3.6,8-8,8h-21.6c-4.4,0-8-3.6-8-8s3.6-8,8-8h13.6v-24.4
	c0-3.5,2.3-6.7,5.7-7.7c46.6-13.8,63.2-49.6,63.2-76c0-24.9-9-44.2-27.6-58.8c-16.2-12.8-39.6-22.9-78.2-33.8
	c-30.9-8.7-51.4-18.6-62.7-30.2c-10.7-11-10.7-21.2-10.7-26.6c0-27.7,26.1-45.6,66.4-45.6c40.7,0,72.7,24.1,73.4,55.1h25.6
	c-0.4-30-19.2-56.3-50.4-70.5c-2.9-1.3-4.7-4.1-4.7-7.3V85.4h-25.6v20c0,2.2-0.9,4.4-2.6,5.9c-1.6,1.5-3.8,2.3-6,2.1
	c-4.1-0.3-18.4-0.4-22.8-0.3c-4.5,0.1-8.1-3.4-8.2-7.8c-0.1-4.4,3.4-8.1,7.8-8.2c3-0.1,9.8,0,15.7,0.1V77.4c0-4.4,3.6-8,8-8h41.6
	c4.4,0,8,3.6,8,8v33.4c34.1,17.4,55.1,49.1,55.1,83.8v7c0,4.4-3.6,8-8,8h-41.6c-4.4,0-8-3.6-8-8v-7c0-22.5-25.2-40.1-57.4-40.1
	c-30.6,0-50.4,11.6-50.4,29.6c0,4.3,0,9.1,6.2,15.5c9.1,9.4,27.8,18.1,55.5,25.9c40.7,11.5,65.8,22.4,83.8,36.7
	C386.1,280,397.1,303.4,397.1,333.5z M296.6,423.1c-0.1-4.4-3.6-7.9-8-7.9c0,0-0.1,0-0.1,0c-4.7,0.1-18.9-0.1-22.9-0.3
	c-2.2-0.2-4.4,0.6-6,2.1c-1.6,1.5-2.5,3.6-2.5,5.8v18.8h-25.6V414c0-3.4-2.1-6.4-5.2-7.5c-17.9-6.6-33.3-16.5-44.5-28.8
	c-12.3-13.4-18.9-28.7-19.1-44.3h25.6c0.9,30.1,41.5,56.3,87.7,56.3c55,0,79.6-28.2,79.6-56.1l0-1.3c0-11.2,0-22.8-10.9-33.8
	c-10.3-10.4-30-19.4-63.7-29.3c-4.2-1.2-8.7,1.2-9.9,5.4c-1.2,4.2,1.2,8.7,5.4,9.9c30.6,8.9,48.6,16.9,56.8,25.2
	c6,6.1,6.3,11.6,6.3,22.5l0,1.3c0,20-19.7,40.1-63.6,40.1c-40.4,0-71.7-22.2-71.7-41.3v-7c0-4.4-3.6-8-8-8h-41.6c-4.4,0-8,3.6-8,8v7
	c0,20.1,8.1,39.5,23.3,56.2c11.8,12.9,27.5,23.5,45.5,30.9v30.1c0,4.4,3.6,8,8,8h41.6c4.4,0,8-3.6,8-8v-18.5
	c6,0.1,12.9,0.1,15.7,0.1C293.1,431.1,296.7,427.5,296.6,423.1z M196.8,251.5c5,3.6,10.7,7.1,16.9,10.4c1.2,0.6,2.5,0.9,3.7,0.9
	c2.9,0,5.7-1.6,7.1-4.3c2-3.9,0.5-8.8-3.4-10.8c-5.5-2.9-10.6-6-15-9.1c-19.7-14.3-29.8-32.6-29.8-54.5c0-29.5,18.2-53,49.8-64.3
	c3.2-1.1,5.3-4.2,5.3-7.5V85.4h13.6c4.4,0,8-3.6,8-8s-3.6-8-8-8h-21.6c-4.4,0-8,3.6-8,8v29.4c-34.6,14.3-55.1,42.9-55.1,77.3
	C160.4,211.4,172.6,234.1,196.8,251.5z"></path>

<path d="M160,444.5c0,4.4-3.6,8-8,8H96c-4.4,0-8-3.6-8-8s3.6-8,8-8h56C156.4,436.5,160,440.1,160,444.5z M101.8,419.3
	c0-4.4-3.6-8-8-8h-35c-4.4,0-8,3.6-8,8s3.6,8,8,8h35C98.2,427.3,101.8,423.7,101.8,419.3z M474,452.2c-5.9,0-10.8,4.8-10.8,10.8
	s4.8,10.8,10.8,10.8c5.9,0,10.8-4.8,10.8-10.8S479.9,452.2,474,452.2z M440.1,276.8c0-4.4-3.6-8-8-8h-61.2c-4.4,0-8,3.6-8,8
	s3.6,8,8,8h61.2C436.5,284.8,440.1,281.2,440.1,276.8z M279.6,268.8h-50.6c-4.4,0-8,3.6-8,8s3.6,8,8,8h50.6c4.4,0,8-3.6,8-8
	S284,268.8,279.6,268.8z M143.8,262.8h91.9c4.4,0,8-3.6,8-8s-3.6-8-8-8h-91.9c-4.4,0-8,3.6-8,8S139.4,262.8,143.8,262.8z
	 M432.9,370.3c-3.1,3.1-3.1,8.2,0,11.3c4.1,4.1,4.1,10.6,0,14.7c-4.1,4.1-10.6,4.1-14.7,0c-3.1-3.1-8.2-3.1-11.3,0
	c-3.1,3.1-3.1,8.2,0,11.3c5.1,5.1,11.9,7.7,18.7,7.7s13.5-2.6,18.7-7.7c10.3-10.3,10.3-27,0-37.3C441.1,367.1,436,367.1,432.9,370.3
	z M382.1,97.4c20.3,0,36.8-16.5,36.8-36.8c0-4.4-3.6-8-8-8s-8,3.6-8,8c0,11.4-9.3,20.8-20.8,20.8c-4.4,0-8,3.6-8,8
	S377.7,97.4,382.1,97.4z M460.8,97.4c4.4,0,8-3.6,8-8s-3.6-8-8-8c-11.4,0-20.8-9.3-20.8-20.8c0-4.4-3.6-8-8-8s-8,3.6-8,8
	C424.1,80.9,440.6,97.4,460.8,97.4z M468.8,110.7c0-4.4-3.6-8-8-8c-20.3,0-36.8,16.5-36.8,36.8c0,4.4,3.6,8,8,8s8-3.6,8-8
	c0-11.4,9.3-20.7,20.8-20.7C465.2,118.7,468.8,115.1,468.8,110.7z M382.1,118.7c11.4,0,20.8,9.3,20.8,20.8c0,4.4,3.6,8,8,8
	s8-3.6,8-8c0-20.3-16.5-36.7-36.8-36.7c-4.4,0-8,3.6-8,8S377.7,118.7,382.1,118.7z M64,240.9c0,4.4,3.6,8,8,8s8-3.6,8-8v-15.8h15.8
	c4.4,0,8-3.6,8-8s-3.6-8-8-8H80v-15.8c0-4.4-3.6-8-8-8s-8,3.6-8,8v15.8H48.2c-4.4,0-8,3.6-8,8s3.6,8,8,8H64V240.9z M95.9,299.2v3.9
	H92c-4.4,0-8,3.6-8,8s3.6,8,8,8h3.9v3.9c0,4.4,3.6,8,8,8s8-3.6,8-8V319h3.9c4.4,0,8-3.6,8-8s-3.6-8-8-8h-3.9v-3.9c0-4.4-3.6-8-8-8
	S95.9,294.7,95.9,299.2z"></path>
</svg>