<svg version="1.1" id="Layer_1" xmlns="http://www.w3.org/2000/svg" xmlns:xlink="http://www.w3.org/1999/xlink" x="0px" y="0px" viewBox="0 0 512 512" enable-background="new 0 0 512 512" xml:space="preserve">
<linearGradient id="SVGID_1_" gradientUnits="userSpaceOnUse" x1="346.4493" y1="424.6486" x2="346.4493" y2="120.0669" class="gradient-element">
	<stop offset="0" class="primary-color-gradient" style="stop-color: #05AD5F"></stop>
	<stop offset="1" class="secondary-color-gradient" style="stop-color: #DA5824"></stop>
</linearGradient>
<path fill="url(#SVGID_1_)" d="M333.5,187.1l-51.6-63.5c-2.1-2.6-0.3-6.5,3.1-6.5h92.2L352.2,184
	C349.2,191.9,338.8,193.6,333.5,187.1z M445.8,206.2L394,123.3l-21.8,58.6c-4.4,11.8,4.3,24.3,16.9,24.3H445.8z M322.8,203.1h4.1
	L256,115.9l-1.6,2c1.6,20.4,13.8,41.8,33.9,64.1c1.6,1.8,3.1,3.6,4.4,5.5C299.6,197.2,310.8,203.1,322.8,203.1z M274.5,423.9
	l159.4-197.9h-63c-13.7,0-25.9,8.5-30.6,21.3L274.5,423.9z M323,226.1c-10.7,0-20,7.4-22.5,17.9c-5.3,22.3-18,47.2-35.2,73.6
	c-25.4,38.7-18.7,79.6-12.5,100.3l5,13.7c0,0,0,0,0,0l76.6-205.5H323z"></path>
<path d="M257.8,439.6C257.8,439.6,257.8,439.6,257.8,439.6c-1.2,0-2.4-0.3-3.5-0.8c-0.8-0.4-1.6-0.9-2.2-1.6
	c-0.1-0.1-0.3-0.3-0.4-0.4L66.9,226.4c-2.9-3.3-2.6-8.4,0.7-11.3c3.3-2.9,8.4-2.6,11.3,0.7l159.8,182l-63.6-173.9
	c-0.9-2.5-0.5-5.2,1-7.3s3.9-3.4,6.6-3.4h151.7c2.6,0,5.1,1.3,6.6,3.4c1.5,2.2,1.8,4.9,0.9,7.4l-64.9,174.3l163-182.4
	c2.9-3.3,8-3.6,11.3-0.6s3.6,8,0.6,11.3l-188,210.4c-0.1,0.1-0.3,0.3-0.4,0.4c-0.7,0.7-1.4,1.2-2.2,1.6
	C260.1,439.3,259,439.6,257.8,439.6z M194.1,229.1l63.7,174.4l65-174.4H194.1z M445.8,211.1h-82.7c-4.4,0-8-3.6-8-8s3.6-8,8-8h68.2
	l-44.2-70.7c-2.3-3.7-1.2-8.7,2.5-11c3.7-2.3,8.7-1.2,11,2.5l51.8,82.9c1.5,2.5,1.6,5.6,0.2,8.1
	C451.4,209.5,448.7,211.1,445.8,211.1z M329.8,211.1c-2.3,0-4.6-1-6.2-3l-64.7-79.6l-64.7,79.6c-2.8,3.4-7.8,4-11.3,1.2
	c-3.4-2.8-4-7.8-1.2-11.3l70.9-87.2c1.5-1.9,3.8-3,6.2-3s4.7,1.1,6.2,3L336,198c2.8,3.4,2.3,8.5-1.2,11.3
	C333.4,210.5,331.6,211.1,329.8,211.1z M154.1,211.1h-82c-2.9,0-5.6-1.6-7-4.1s-1.3-5.7,0.2-8.1l51.7-82.8c2.3-3.7,7.3-4.9,11-2.5
	c3.7,2.3,4.9,7.3,2.5,11l-44.1,70.6h67.6c4.4,0,8,3.6,8,8S158.5,211.1,154.1,211.1z M169.9,205.4c-3.3,0-6.3-2-7.5-5.3l-31.2-85.4
	c-0.9-2.5-0.5-5.2,1-7.3s3.9-3.4,6.6-3.4h100.6c4.4,0,8,3.6,8,8s-3.6,8-8,8h-89.1l27.3,74.6c1.5,4.1-0.6,8.7-4.8,10.3
	C171.7,205.3,170.8,205.4,169.9,205.4z M346.5,204.9c-0.9,0-1.9-0.2-2.8-0.5c-4.1-1.5-6.2-6.1-4.7-10.3l27.6-74h-89
	c-4.4,0-8-3.6-8-8s3.6-8,8-8h100.5c2.6,0,5.1,1.3,6.6,3.4c1.5,2.2,1.8,4.9,0.9,7.4L354,199.7C352.8,202.9,349.8,204.9,346.5,204.9z"></path>
</svg>