<svg width="40" height="51" viewBox="0 0 40 51" fill="none" xmlns="http://www.w3.org/2000/svg">
<path d="M14.5714 5.53714C10.7246 5.53714 7.14 10.7829 7.14 13.6971H0C0 5.53714 8.20857 0.242857 11.9486 0H32.2029L35.1171 5.53714H14.5714Z" fill="white"/>
<path d="M39.4886 13.6971H12.8229C12.8229 10.4914 15.4457 8.45143 17.1943 8.45143H36.72L39.4886 13.6971Z" fill="white"/>
<path d="M24.9172 45.4629C28.764 45.4629 32.3486 40.2171 32.3486 37.3029H39.4886C39.4886 45.4629 31.28 50.7571 27.54 51H7.28573L4.37145 45.4629H24.9172Z" fill="white"/>
<path d="M1.52588e-05 37.3029H26.6657C26.6657 40.5086 24.0429 42.5486 22.2943 42.5486H2.76859L1.52588e-05 37.3029Z" fill="white"/>
<path fill-rule="evenodd" clip-rule="evenodd" d="M12.6957 32.9258C12.7869 32.9295 12.8779 32.9314 12.9686 32.9314H18.8647L32.4433 20.3318C31.1825 19.3404 29.8549 18.5951 28.5529 18.2118L12.6957 32.9258ZM28.4674 32.9314H22.2923L34.1836 21.8975C35.1531 22.8855 36.0475 24.0033 36.8148 25.1859L28.4674 32.9314ZM31.895 32.9314H39.4886C39.4886 31.1362 38.9288 29.1697 37.998 27.2685L31.895 32.9314ZM25.4367 17.9229H19.2615L6.25569 29.991C7.42536 30.988 8.68 31.785 9.9464 32.2964L25.4367 17.9229ZM9.98149 17.9229H15.8339L4.58132 28.3642C3.68991 27.3825 2.88326 26.291 2.20407 25.1396L9.98149 17.9229ZM6.55387 17.9229H0C0 19.5742 0.40835 21.3018 1.11147 22.9729L6.55387 17.9229Z" fill="white"/>
</svg>
