<svg width="24" height="24" viewBox="0 0 24 24" fill="none" xmlns="http://www.w3.org/2000/svg">
<path fill-rule="evenodd" clip-rule="evenodd" d="M12 24C18.6274 24 24 18.6274 24 12C24 5.37258 18.6274 0 12 0C5.37258 0 0 5.37258 0 12C0 18.6274 5.37258 24 12 24Z" fill="url(#paint0_linear)"/>
<path d="M19.2072 15.5121L17.7923 14.6953L18.9081 14.3963C19.1905 14.3206 19.3581 14.0303 19.2824 13.7479C19.2067 13.4655 18.9165 13.2979 18.634 13.3736L17.3817 13.7091C16.8143 13.8612 16.2097 13.7816 15.7009 13.4879C15.1972 13.197 14.8868 12.6595 14.8868 12.0779V11.9221C14.8868 11.3404 15.1972 10.803 15.7009 10.5121C16.2097 10.2184 16.8153 10.139 17.3826 10.2915C18.7824 10.6678 18.6869 10.6446 18.7714 10.6446C19.0051 10.6446 19.219 10.4886 19.2824 10.2521C19.3581 9.96961 19.1905 9.67933 18.9081 9.60366L17.7923 9.30467L19.2072 8.48782C19.4604 8.34164 19.5471 8.01784 19.4009 7.76465C19.2547 7.51142 18.9309 7.42473 18.6778 7.57088L17.2628 8.38776L17.5618 7.27193C17.6375 6.98949 17.4699 6.69921 17.1875 6.62353C16.9052 6.54779 16.6148 6.71545 16.5391 6.99786L16.2035 8.25018C16.0515 8.81763 15.6802 9.30143 15.1715 9.59516C14.6678 9.88596 14.0472 9.88596 13.5435 9.59516L13.4085 9.51724C12.9048 9.22643 12.5945 8.68898 12.5945 8.10734C12.5945 7.5199 12.8278 6.95651 13.2432 6.54112L14.16 5.62437C14.3668 5.41763 14.3668 5.08242 14.16 4.87568C13.9533 4.66891 13.618 4.66891 13.4113 4.87568L12.5945 5.6925V4.05883C12.5945 3.76646 12.3575 3.52942 12.0651 3.52942C11.7727 3.52942 11.5357 3.76646 11.5357 4.05883V5.6925L10.7188 4.87568C10.5121 4.66891 10.1769 4.66891 9.97013 4.87568C9.76336 5.08242 9.76336 5.41763 9.97013 5.62437L10.8869 6.54112C11.3023 6.95651 11.5357 7.5199 11.5357 8.10736C11.5357 8.68898 11.2254 9.22643 10.7217 9.51724L10.5867 9.59518C10.083 9.88599 9.46239 9.886 8.95868 9.59519C8.44992 9.30147 8.07868 8.81766 7.92664 8.25022L7.59108 6.99789C7.51541 6.71549 7.22519 6.54786 6.94268 6.62357C6.66024 6.69924 6.49262 6.98952 6.56832 7.27196L6.86731 8.3878L5.45239 7.57095C5.19923 7.42473 4.87536 7.51149 4.72921 7.76471C4.58303 8.01794 4.66979 8.34171 4.92298 8.48789L6.33783 9.30474L5.2221 9.60372C4.93965 9.6794 4.77203 9.96968 4.84774 10.2521C4.91113 10.4886 5.12502 10.6446 5.35878 10.6446C5.44331 10.6446 5.35038 10.6671 6.74754 10.2916C7.31486 10.139 7.92048 10.2185 8.42924 10.5122C8.93299 10.803 9.24331 11.3405 9.24331 11.9222V12.0779C9.24331 12.6596 8.93299 13.1971 8.42924 13.4879C7.92048 13.7816 7.31587 13.8612 6.74842 13.7092L5.49613 13.3736C5.21386 13.2979 4.92344 13.4656 4.84774 13.748C4.77206 14.0304 4.93965 14.3207 5.2221 14.3964L6.33783 14.6953L4.92298 15.5122C4.45571 15.782 4.64752 16.5002 5.18818 16.5002C5.37702 16.5002 5.30806 16.5125 6.86731 15.6123L6.56832 16.7281C6.49265 17.0106 6.66024 17.3008 6.94268 17.3765C7.22569 17.4525 7.51557 17.2839 7.59108 17.0022L7.92664 15.7499C8.07868 15.1824 8.44993 14.6986 8.9587 14.4049C9.4624 14.1141 10.083 14.1141 10.5867 14.4049L10.7216 14.4828C11.2254 14.7736 11.5357 15.311 11.5357 15.8927C11.5357 16.4801 11.3023 17.0435 10.8869 17.4589L9.97016 18.3756C9.76339 18.5824 9.76339 18.9176 9.97016 19.1243C10.1769 19.3311 10.5121 19.3311 10.7188 19.1243L11.5357 18.3075V19.9412C11.5357 20.2336 11.7727 20.4706 12.0651 20.4706C12.3575 20.4706 12.5945 20.2336 12.5945 19.9412V18.3075L13.4113 19.1243C13.5147 19.2277 13.6502 19.2794 13.7857 19.2794C14.253 19.2794 14.4945 18.7101 14.16 18.3757L13.2432 17.4589C12.8278 17.0435 12.5945 16.4801 12.5945 15.8927C12.5945 15.311 12.9048 14.7736 13.4085 14.4828L13.5435 14.4048C14.0472 14.114 14.6678 14.114 15.1715 14.4048C15.6802 14.6985 16.0515 15.1824 16.2035 15.7498L16.5391 17.0021C16.6025 17.2386 16.8163 17.3946 17.0501 17.3946C17.3982 17.3946 17.6519 17.0642 17.5618 16.7281L17.2628 15.6123L18.6778 16.4291C18.9293 16.5744 19.2539 16.4902 19.4009 16.2354C19.5471 15.9821 19.4604 15.6583 19.2072 15.5121ZM13.828 12C13.828 12.6298 13.492 13.2119 12.9466 13.5268C12.4011 13.8418 11.7291 13.8418 11.1836 13.5268C10.6381 13.2119 10.3021 12.6299 10.3021 12C10.3021 11.3702 10.6381 10.7881 11.1836 10.4732C11.729 10.1583 12.4011 10.1583 12.9466 10.4732C13.492 10.7881 13.828 11.3702 13.828 12Z" fill="white"/>
<path fill-rule="evenodd" clip-rule="evenodd" d="M12 24C18.6274 24 24 18.6274 24 12C24 5.37258 18.6274 0 12 0C5.37258 0 0 5.37258 0 12C0 18.6274 5.37258 24 12 24Z" fill="url(#paint1_linear)"/>
<path d="M19.2072 15.5121L17.7923 14.6953L18.9081 14.3963C19.1905 14.3206 19.3581 14.0303 19.2824 13.7479C19.2067 13.4655 18.9165 13.2979 18.634 13.3736L17.3817 13.7091C16.8143 13.8612 16.2097 13.7816 15.7009 13.4879C15.1972 13.197 14.8868 12.6595 14.8868 12.0779V11.9221C14.8868 11.3404 15.1972 10.803 15.7009 10.5121C16.2097 10.2184 16.8153 10.139 17.3826 10.2915C18.7824 10.6678 18.6869 10.6446 18.7714 10.6446C19.0051 10.6446 19.219 10.4886 19.2824 10.2521C19.3581 9.96961 19.1905 9.67933 18.9081 9.60366L17.7923 9.30467L19.2072 8.48782C19.4604 8.34164 19.5471 8.01784 19.4009 7.76465C19.2547 7.51142 18.9309 7.42473 18.6778 7.57088L17.2628 8.38776L17.5618 7.27193C17.6375 6.98949 17.4699 6.69921 17.1875 6.62353C16.9052 6.54779 16.6148 6.71545 16.5391 6.99786L16.2035 8.25018C16.0515 8.81763 15.6802 9.30143 15.1715 9.59516C14.6678 9.88596 14.0472 9.88596 13.5435 9.59516L13.4085 9.51724C12.9048 9.22643 12.5945 8.68898 12.5945 8.10734C12.5945 7.5199 12.8278 6.95651 13.2432 6.54112L14.16 5.62437C14.3668 5.41763 14.3668 5.08242 14.16 4.87568C13.9533 4.66891 13.618 4.66891 13.4113 4.87568L12.5945 5.6925V4.05883C12.5945 3.76646 12.3575 3.52942 12.0651 3.52942C11.7727 3.52942 11.5357 3.76646 11.5357 4.05883V5.6925L10.7188 4.87568C10.5121 4.66891 10.1769 4.66891 9.97013 4.87568C9.76336 5.08242 9.76336 5.41763 9.97013 5.62437L10.8869 6.54112C11.3023 6.95651 11.5357 7.5199 11.5357 8.10736C11.5357 8.68898 11.2254 9.22643 10.7217 9.51724L10.5867 9.59518C10.083 9.88599 9.46239 9.886 8.95868 9.59519C8.44992 9.30147 8.07868 8.81766 7.92664 8.25022L7.59108 6.99789C7.51541 6.71549 7.22519 6.54786 6.94268 6.62357C6.66024 6.69924 6.49262 6.98952 6.56832 7.27196L6.86731 8.3878L5.45239 7.57095C5.19923 7.42473 4.87536 7.51149 4.72921 7.76471C4.58303 8.01794 4.66979 8.34171 4.92298 8.48789L6.33783 9.30474L5.2221 9.60372C4.93965 9.6794 4.77203 9.96968 4.84774 10.2521C4.91113 10.4886 5.12502 10.6446 5.35878 10.6446C5.44331 10.6446 5.35038 10.6671 6.74754 10.2916C7.31486 10.139 7.92048 10.2185 8.42924 10.5122C8.93299 10.803 9.24331 11.3405 9.24331 11.9222V12.0779C9.24331 12.6596 8.93299 13.1971 8.42924 13.4879C7.92048 13.7816 7.31587 13.8612 6.74842 13.7092L5.49613 13.3736C5.21386 13.2979 4.92344 13.4656 4.84774 13.748C4.77206 14.0304 4.93965 14.3207 5.2221 14.3964L6.33783 14.6953L4.92298 15.5122C4.45571 15.782 4.64752 16.5002 5.18818 16.5002C5.37702 16.5002 5.30806 16.5125 6.86731 15.6123L6.56832 16.7281C6.49265 17.0106 6.66024 17.3008 6.94268 17.3765C7.22569 17.4525 7.51557 17.2839 7.59108 17.0022L7.92664 15.7499C8.07868 15.1824 8.44993 14.6986 8.9587 14.4049C9.4624 14.1141 10.083 14.1141 10.5867 14.4049L10.7216 14.4828C11.2254 14.7736 11.5357 15.311 11.5357 15.8927C11.5357 16.4801 11.3023 17.0435 10.8869 17.4589L9.97016 18.3756C9.76339 18.5824 9.76339 18.9176 9.97016 19.1243C10.1769 19.3311 10.5121 19.3311 10.7188 19.1243L11.5357 18.3075V19.9412C11.5357 20.2336 11.7727 20.4706 12.0651 20.4706C12.3575 20.4706 12.5945 20.2336 12.5945 19.9412V18.3075L13.4113 19.1243C13.5147 19.2277 13.6502 19.2794 13.7857 19.2794C14.253 19.2794 14.4945 18.7101 14.16 18.3757L13.2432 17.4589C12.8278 17.0435 12.5945 16.4801 12.5945 15.8927C12.5945 15.311 12.9048 14.7736 13.4085 14.4828L13.5435 14.4048C14.0472 14.114 14.6678 14.114 15.1715 14.4048C15.6802 14.6985 16.0515 15.1824 16.2035 15.7498L16.5391 17.0021C16.6025 17.2386 16.8163 17.3946 17.0501 17.3946C17.3982 17.3946 17.6519 17.0642 17.5618 16.7281L17.2628 15.6123L18.6778 16.4291C18.9293 16.5744 19.2539 16.4902 19.4009 16.2354C19.5471 15.9821 19.4604 15.6583 19.2072 15.5121ZM13.828 12C13.828 12.6298 13.492 13.2119 12.9466 13.5268C12.4011 13.8418 11.7291 13.8418 11.1836 13.5268C10.6381 13.2119 10.3021 12.6299 10.3021 12C10.3021 11.3702 10.6381 10.7881 11.1836 10.4732C11.729 10.1583 12.4011 10.1583 12.9466 10.4732C13.492 10.7881 13.828 11.3702 13.828 12Z" fill="white"/>
<defs>
<linearGradient id="paint0_linear" x1="21.4648" y1="-21" x2="-4.49668" y2="-18.236" gradientUnits="userSpaceOnUse">
<stop stop-color="#1ADBC5"/>
<stop offset="1" stop-color="#04D3DD"/>
</linearGradient>
<linearGradient id="paint1_linear" x1="21.4648" y1="-21" x2="-4.49668" y2="-18.236" gradientUnits="userSpaceOnUse">
<stop stop-color="#1ADBC5"/>
<stop offset="1" stop-color="#04D3DD"/>
</linearGradient>
</defs>
</svg>
