<svg width="30" height="30" fill="none" xmlns="http://www.w3.org/2000/svg" class=""><circle cx="15" cy="15" r="15" fill="rgb(37, 167, 219)"></circle><path fill-rule="evenodd" clip-rule="evenodd" d="M14.634 12.566L12.8 10.73V15.2a.8.8 0 01-1.6 0v-4.469l-1.834 1.835a.8.8 0 01-1.132-1.132l3.2-3.2a.8.8 0 011.132 0l3.2 3.2a.8.8 0 01-1.132 1.132zm.732 4.868L17.2 19.27V14.8a.8.8 0 011.6 0v4.469l1.834-1.835a.8.8 0 011.132 1.132l-3.2 3.2a.8.8 0 01-1.132 0l-3.2-3.2a.8.8 0 011.132-1.132z" fill="#141414"></path></svg>